<?xml version="1.0" encoding="UTF-8"?>
<!DOCTYPE svg PUBLIC "-//W3C//DTD SVG 1.1//EN" "http://www.w3.org/Graphics/SVG/1.1/DTD/svg11.dtd">
<svg version="1.1" xmlns="http://www.w3.org/2000/svg" xmlns:xlink="http://www.w3.org/1999/xlink" x="0" y="0" width="100" height="100" viewBox="0, 0, 100, 100">
  <g id="Background">
    <rect x="0" y="0" width="100" height="100" fill="#FFFFFF" fill-opacity="0"/>
  </g>
  <g id="Layer_1">
    <g id="g834">
      <path d="M49.704,0 C48.102,0.006 46.497,0.088 44.895,0.247 C41.995,0.535 40.231,2.801 40.689,5.013 C41.133,7.157 43.337,8.517 45.5,8.391 L45.971,12.876 C38.706,13.662 31.831,16.56 26.195,21.212 L23.356,17.761 C24.965,16.306 25.521,13.787 24.295,11.974 C23.031,10.105 20.197,9.765 17.976,11.613 C15.518,13.658 13.249,15.939 11.21,18.429 C9.363,20.684 9.718,23.533 11.606,24.773 C13.435,25.975 15.956,25.378 17.396,23.76 L20.892,26.591 C16.306,32.285 13.489,39.197 12.791,46.475 L8.363,46.044 C8.472,43.877 7.084,41.704 4.936,41.288 C2.72,40.86 0.476,42.623 0.212,45.501 C-0.081,48.685 -0.072,51.902 0.247,55.105 C0.535,58.005 2.801,59.769 5.013,59.311 C7.156,58.867 8.517,56.663 8.392,54.5 L12.876,54.029 C13.662,61.294 16.56,68.169 21.212,73.805 L17.761,76.644 C16.306,75.035 13.788,74.479 11.975,75.705 C10.105,76.969 9.765,79.803 11.613,82.024 C13.658,84.482 15.939,86.751 18.429,88.79 C20.684,90.637 23.533,90.282 24.773,88.394 C25.975,86.565 25.379,84.044 23.761,82.604 L26.592,79.108 C32.285,83.694 39.198,86.511 46.475,87.209 L46.044,91.637 C43.877,91.528 41.703,92.916 41.288,95.064 C40.86,97.28 42.624,99.524 45.501,99.788 C48.685,100.081 51.902,100.072 55.105,99.753 C58.006,99.465 59.769,97.198 59.311,94.986 C58.867,92.843 56.663,91.483 54.5,91.608 L54.029,87.124 C61.294,86.338 68.169,83.44 73.805,78.788 L76.644,82.239 C75.035,83.694 74.479,86.212 75.705,88.025 C76.969,89.895 79.803,90.235 82.024,88.387 C84.482,86.342 86.751,84.061 88.79,81.571 C90.637,79.316 90.282,76.467 88.394,75.227 C86.565,74.025 84.044,74.621 82.604,76.239 L79.108,73.408 C83.694,67.715 86.511,60.802 87.209,53.525 L91.637,53.956 C91.528,56.123 92.916,58.297 95.064,58.712 C97.28,59.14 99.524,57.376 99.788,54.499 C100.081,51.315 100.072,48.098 99.753,44.895 C99.465,41.994 97.199,40.231 94.987,40.689 C92.843,41.132 91.483,43.337 91.608,45.499 L87.124,45.971 C86.338,38.706 83.44,31.831 78.788,26.195 L82.239,23.356 C83.694,24.965 86.213,25.521 88.026,24.295 C89.895,23.031 90.235,20.197 88.387,17.976 C86.342,15.518 84.061,13.249 81.571,11.21 C79.316,9.363 76.467,9.718 75.227,11.606 C74.025,13.435 74.622,15.956 76.24,17.396 L73.409,20.892 C67.715,16.306 60.803,13.489 53.525,12.791 L53.956,8.363 C56.123,8.472 58.297,7.084 58.712,4.936 C59.14,2.72 57.376,0.476 54.499,0.212 C52.907,0.066 51.307,-0.005 49.704,0 z" fill="#ED3C43" id="path901"/>
      <path d="M37.87,33.661 C37.87,36.196 35.815,38.251 33.28,38.251 C30.746,38.251 28.691,36.196 28.691,33.661 C28.691,31.127 30.746,29.072 33.28,29.072 C35.815,29.072 37.87,31.127 37.87,33.661 z" fill="#E91920" id="path923"/>
      <path d="M34.942,55.618 C34.942,60.073 31.331,63.685 26.876,63.685 C22.421,63.685 18.81,60.073 18.81,55.618 C18.81,51.164 22.421,47.552 26.876,47.552 C31.331,47.552 34.942,51.164 34.942,55.618 z" fill="#E91920" id="circle925"/>
      <path d="M49.397,73.733 C49.397,76.571 47.097,78.871 44.259,78.871 C41.421,78.871 39.12,76.571 39.12,73.733 C39.12,70.895 41.421,68.594 44.259,68.594 C47.097,68.594 49.397,70.895 49.397,73.733 z" fill="#E91920" id="circle927"/>
      <path d="M80.207,45.731 C80.207,50.388 76.432,54.163 71.775,54.163 C67.118,54.163 63.343,50.388 63.343,45.731 C63.343,41.074 67.118,37.299 71.775,37.299 C76.432,37.299 80.207,41.074 80.207,45.731 z" fill="#E91920" id="circle929"/>
      <path d="M57.082,24.147 C57.082,25.267 56.174,26.175 55.054,26.175 C53.934,26.175 53.026,25.267 53.026,24.147 C53.026,23.027 53.934,22.119 55.054,22.119 C56.174,22.119 57.082,23.027 57.082,24.147 z" fill="#E91920" id="circle931"/>
      <path d="M56.615,42.402 C56.615,45.947 53.741,48.821 50.196,48.821 C46.651,48.821 43.777,45.947 43.777,42.402 C43.777,38.857 46.651,35.983 50.196,35.983 C53.741,35.983 56.615,38.857 56.615,42.402 z" fill="#E91920" id="circle933"/>
      <path d="M63.581,68.231 C63.581,70.159 62.018,71.722 60.09,71.722 C58.161,71.722 56.598,70.159 56.598,68.231 C56.598,66.302 58.161,64.739 60.09,64.739 C62.018,64.739 63.581,66.302 63.581,68.231 z" fill="#E91920" id="circle935"/>
    </g>
  </g>
</svg>
