<?xml version="1.0" encoding="UTF-8"?>
<!DOCTYPE svg PUBLIC "-//W3C//DTD SVG 1.1//EN" "http://www.w3.org/Graphics/SVG/1.1/DTD/svg11.dtd">
<svg version="1.1" xmlns="http://www.w3.org/2000/svg" xmlns:xlink="http://www.w3.org/1999/xlink" x="0" y="0" width="100" height="100" viewBox="0, 0, 100, 100">
  <g id="Background">
    <rect x="0" y="0" width="100" height="100" fill="#000000" fill-opacity="0"/>
  </g>
  <g id="Layer_1">
    <g opacity="0.82">
      <path d="M91.946,58.91 C91.946,70.381 82.516,79.68 70.883,79.68 C59.25,79.68 49.82,70.381 49.82,58.91 C49.82,47.439 59.25,38.139 70.883,38.139 C82.516,38.139 91.946,47.439 91.946,58.91 z" fill="#AAD4FF"/>
      <path d="M91.946,58.91 C91.946,70.381 82.516,79.68 70.883,79.68 C59.25,79.68 49.82,70.381 49.82,58.91 C49.82,47.439 59.25,38.139 70.883,38.139 C82.516,38.139 91.946,47.439 91.946,58.91 z" fill-opacity="0" stroke="#000000" stroke-width="1.762"/>
    </g>
    <path d="M59.367,65.483 L70.454,65.483 L70.454,141.862 L59.367,141.862 z" fill="#007FFF"/>
    <g>
      <g>
        <path d="M118.431,15.7 C118.369,15.195 100.31,21.186 85.98,25.374 C72.708,15.228 47.176,19.892 47.176,19.892 L52.127,24.788 C52.697,25.352 59.548,24.422 65.211,28.175 L59.149,33.273 C54.957,36.798 46.554,39.765 38.69,42.169 C36.089,42.963 33.548,43.696 31.238,44.367 L35.635,51.113 L30.202,52.595 L33.56,57.733 L38.963,56.779 L42.517,61.9 L45.964,61.114 L48.602,65.464 C48.602,65.464 67.248,62.028 81.307,59.793 C95.364,57.559 101.392,43.575 101.392,43.575 L128.516,41.078 L118.432,15.699 L118.432,15.699 L118.432,15.699 z M35.634,51.113 C72.089,41.092 62.505,42.82 35.101,50.295 L35.634,51.113 z M39.378,57.377 C75.151,49.26 65.79,50.372 38.963,56.78 L39.378,57.377 z M46.385,61.81 C74.349,56.704 72.266,55.629 45.963,61.114 L46.385,61.81 z M66.34,30.125 C66.34,30.125 78.985,45.907 92.869,37.701 C77.782,42.799 66.34,30.125 66.34,30.125 z M61.221,37.046 C61.064,45.605 65.309,53.274 71.155,59.239 C65.976,54.643 59.797,45.664 61.221,37.046 z M89.193,39.781 C88.403,40.118 87.62,40.066 87.62,40.066 C87.62,40.066 77.191,48.876 75.332,56.111 C80.208,45.612 89.193,39.781 89.193,39.781 z" fill="#FFD4AA"/>
        <path d="M118.431,15.7 C118.369,15.195 100.31,21.186 85.98,25.374 C72.708,15.228 47.176,19.892 47.176,19.892 L52.127,24.788 C52.697,25.352 59.548,24.422 65.211,28.175 L59.149,33.273 C54.957,36.798 46.554,39.765 38.69,42.169 C36.089,42.963 33.548,43.696 31.238,44.367 L35.635,51.113 L30.202,52.595 L33.56,57.733 L38.963,56.779 L42.517,61.9 L45.964,61.114 L48.602,65.464 C48.602,65.464 67.248,62.028 81.307,59.793 C95.364,57.559 101.392,43.575 101.392,43.575 L128.516,41.078 L118.432,15.699 L118.432,15.699 L118.432,15.699 z M35.634,51.113 C72.089,41.092 62.505,42.82 35.101,50.295 L35.634,51.113 z M39.378,57.377 C75.151,49.26 65.79,50.372 38.963,56.78 L39.378,57.377 z M46.385,61.81 C74.349,56.704 72.266,55.629 45.963,61.114 L46.385,61.81 z M66.34,30.125 C66.34,30.125 78.985,45.907 92.869,37.701 C77.782,42.799 66.34,30.125 66.34,30.125 z M61.221,37.046 C61.064,45.605 65.309,53.274 71.155,59.239 C65.976,54.643 59.797,45.664 61.221,37.046 z M89.193,39.781 C88.403,40.118 87.62,40.066 87.62,40.066 C87.62,40.066 77.191,48.876 75.332,56.111 C80.208,45.612 89.193,39.781 89.193,39.781 z" fill-opacity="0" stroke="#000000" stroke-width="1"/>
      </g>
      <g>
        <path d="M66.341,30.123 C66.341,30.123 78.985,45.904 92.87,37.698 C77.783,42.796 66.341,30.123 66.341,30.123 z M61.222,37.044 C61.065,45.602 65.309,53.272 71.156,59.237 C65.977,54.64 59.797,45.661 61.222,37.044 z M89.194,39.779 C88.403,40.115 87.621,40.063 87.621,40.063 C87.62,40.063 77.192,48.874 75.333,56.108 C80.208,45.609 89.194,39.778 89.194,39.778 z" fill="#FFD4AA"/>
        <path d="M66.341,30.123 C66.341,30.123 78.985,45.904 92.87,37.698 C77.783,42.796 66.341,30.123 66.341,30.123 z M61.222,37.044 C61.065,45.602 65.309,53.272 71.156,59.237 C65.977,54.64 59.797,45.661 61.222,37.044 z M89.194,39.779 C88.403,40.115 87.621,40.063 87.621,40.063 C87.62,40.063 77.192,48.874 75.333,56.108 C80.208,45.609 89.194,39.778 89.194,39.778 z" fill-opacity="0" stroke="#000000" stroke-width="1"/>
      </g>
    </g>
    <path d="M61.716,51.178 L65.593,53.998" fill-opacity="0" stroke="#000000" stroke-width="1.762" opacity="0.82"/>
    <g opacity="0.82">
      <path d="M73.87,95.869 C73.87,106.966 65.269,115.962 54.659,115.962 C44.049,115.962 35.447,106.966 35.447,95.869 C35.447,84.773 44.049,75.777 54.659,75.777 C65.269,75.777 73.87,84.773 73.87,95.869 z" fill="#AAD4FF"/>
      <path d="M73.87,95.869 C73.87,106.966 65.269,115.962 54.659,115.962 C44.049,115.962 35.447,106.966 35.447,95.869 C35.447,84.773 44.049,75.777 54.659,75.777 C65.269,75.777 73.87,84.773 73.87,95.869 z" fill-opacity="0" stroke="#000000" stroke-width="1.762"/>
    </g>
    <g opacity="0.82">
      <path d="M48.49,66.612 C48.49,71.868 43.597,76.129 37.562,76.129 C31.527,76.129 26.635,71.868 26.635,66.612 C26.635,61.356 31.527,57.094 37.562,57.094 C43.597,57.094 48.49,61.356 48.49,66.612 z" fill="#AAD4FF"/>
      <path d="M48.49,66.612 C48.49,71.868 43.597,76.129 37.562,76.129 C31.527,76.129 26.635,71.868 26.635,66.612 C26.635,61.356 31.527,57.094 37.562,57.094 C43.597,57.094 48.49,61.356 48.49,66.612 z" fill-opacity="0" stroke="#000000" stroke-width="1.762"/>
    </g>
    <path d="M39.356,67.393 L41.823,69.552" fill-opacity="0" stroke="#000000" stroke-width="1.762" opacity="0.82"/>
    <path d="M65.241,78.673 L69.118,80.788" fill-opacity="0" stroke="#000000" stroke-width="1.762" opacity="0.82"/>
    <g opacity="0.82">
      <path d="M63.309,41.751 C63.309,47.592 58.574,52.326 52.734,52.326 C46.893,52.326 42.159,47.592 42.159,41.751 C42.159,35.911 46.893,31.176 52.734,31.176 C58.574,31.176 63.309,35.911 63.309,41.751 z" fill="#AAD4FF"/>
      <path d="M63.309,41.751 C63.309,47.592 58.574,52.326 52.734,52.326 C46.893,52.326 42.159,47.592 42.159,41.751 C42.159,35.911 46.893,31.176 52.734,31.176 C58.574,31.176 63.309,35.911 63.309,41.751 z" fill-opacity="0" stroke="#000000" stroke-width="1.762"/>
    </g>
    <g opacity="0.82">
      <path d="M44.488,87.463 C44.488,95.894 37.722,102.729 29.376,102.729 C21.03,102.729 14.264,95.894 14.264,87.463 C14.264,79.032 21.03,72.197 29.376,72.197 C37.722,72.197 44.488,79.032 44.488,87.463 z" fill="#AAD4FF"/>
      <path d="M44.488,87.463 C44.488,95.894 37.722,102.729 29.376,102.729 C21.03,102.729 14.264,95.894 14.264,87.463 C14.264,79.032 21.03,72.197 29.376,72.197 C37.722,72.197 44.488,79.032 44.488,87.463 z" fill-opacity="0" stroke="#000000" stroke-width="1.762"/>
    </g>
    <g opacity="0.82">
      <path d="M82.309,46.767 C82.309,49.687 80.099,52.054 77.374,52.054 C74.648,52.054 72.439,49.687 72.439,46.767 C72.439,43.847 74.648,41.479 77.374,41.479 C80.099,41.479 82.309,43.847 82.309,46.767 z" fill="#AAD4FF"/>
      <path d="M82.309,46.767 C82.309,49.687 80.099,52.054 77.374,52.054 C74.648,52.054 72.439,49.687 72.439,46.767 C72.439,43.847 74.648,41.479 77.374,41.479 C80.099,41.479 82.309,43.847 82.309,46.767 z" fill-opacity="0" stroke="#000000" stroke-width="1.762"/>
    </g>
    <g opacity="0.82">
      <path d="M98.156,68.989 C98.156,73.467 94.368,77.096 89.696,77.096 C85.023,77.096 81.236,73.467 81.236,68.989 C81.236,64.511 85.023,60.881 89.696,60.881 C94.368,60.881 98.156,64.511 98.156,68.989 z" fill="#AAD4FF"/>
      <path d="M98.156,68.989 C98.156,73.467 94.368,77.096 89.696,77.096 C85.023,77.096 81.236,73.467 81.236,68.989 C81.236,64.511 85.023,60.881 89.696,60.881 C94.368,60.881 98.156,64.511 98.156,68.989 z" fill-opacity="0" stroke="#000000" stroke-width="1.762"/>
    </g>
    <path d="M40.566,36.373 L44.091,38.841" fill-opacity="0" stroke="#000000" stroke-width="1.762" opacity="0.82"/>
    <path d="M77.021,43.594 L80.194,46.062" fill-opacity="0" stroke="#000000" stroke-width="1.762" opacity="0.82"/>
    <path d="M32.768,75.281 L36.469,77.44" fill-opacity="0" stroke="#000000" stroke-width="1.762" opacity="0.82"/>
    <path d="M70.176,94.888 L70.881,98.061" fill-opacity="0" stroke="#000000" stroke-width="1.762" opacity="0.82"/>
    <g>
      <g>
        <path d="M0.214,38.043 L-0.001,55.575 L17.962,57.404 L17.962,36.859 L0.214,38.042 z" fill="#AAD4FF"/>
        <path d="M0.214,38.043 L-0.001,55.575 L17.962,57.404 L17.962,36.859 L0.214,38.042 z" fill-opacity="0" stroke="#000000" stroke-width="2.91"/>
      </g>
      <g>
        <path d="M37.312,9.338 L37.312,9.338 C39.118,9.338 40.583,9.344 40.583,9.353 L40.583,19.438 C40.583,19.446 39.118,19.453 37.312,19.453 L37.312,19.453 C35.506,19.453 34.042,19.446 34.042,19.438 L34.042,9.353 C34.042,9.344 35.506,9.338 37.312,9.338 z" fill="#AAD4FF"/>
        <path d="M37.312,9.338 L37.312,9.338 C39.118,9.338 40.583,9.344 40.583,9.353 L40.583,19.438 C40.583,19.446 39.118,19.453 37.312,19.453 L37.312,19.453 C35.506,19.453 34.042,19.446 34.042,19.438 L34.042,9.353 C34.042,9.344 35.506,9.338 37.312,9.338 z" fill-opacity="0" stroke="#000000" stroke-width="0.671"/>
      </g>
      <g>
        <path d="M17.963,36.785 C19.061,36.858 19.555,38.074 20.598,38.452 C21.606,38.739 22.641,38.64 23.663,38.56 C24.006,38.379 25.94,36.937 26.048,36.718 C26.914,35.999 28.084,34.201 28.074,33.182 L28.289,27.535 C28.3,27.246 27.116,26.335 26.927,26.116 C26.698,25.849 27.228,23.278 26.787,23.328 C26.288,23.135 26.04,23.349 25.303,23 C25.121,22.449 25.031,20.128 25.74,20.259 C26.935,20.331 27.684,20.477 29.044,20.012 C29.867,20.012 32.7,17.395 33.517,17.395 L40.754,17.433 C41.217,17.433 42.103,18.653 42.325,18.876 C43.392,20.176 44.817,20.476 46.763,21.113 C47.261,21.174 48.988,20.87 49.139,21.22 C49.481,22.36 49.365,23.513 49.272,23.949 C49.148,24.533 47.988,23.94 47.927,24.697 C47.877,25.311 47.909,26.412 47.74,27.173 C46.712,28.231 45.467,28.898 45.894,29.326 L45.866,34.159 C45.998,35.26 46.34,36.489 46.74,37.196 C47.862,39.67 50.18,39.728 50.446,39.797 C50.568,39.828 61.046,41.183 66.958,46.842 C67.461,47.323 68.567,48.256 69.808,52.059 C71.007,55.733 71.824,67.705 71.421,67.87 C67.999,69.273 63.349,70.735 57.815,68.946 C57.124,68.723 57.888,64.213 57.438,62.062 C56.977,59.856 57.453,55.569 52.679,54.721 C50.689,54.367 44.256,55.489 39.745,56.442 C37.597,56.895 34.689,57.179 33.157,56.872 C32.21,56.683 26.398,55.421 25.328,55.153 C24.618,54.976 23.035,54.885 20.643,55.63 C18.868,56.183 17.915,57.537 17.968,57.065 C18.008,56.721 18.036,37.144 17.964,36.785 z" fill="#AAD4FF"/>
        <path d="M17.963,36.785 C19.061,36.858 19.555,38.074 20.598,38.452 C21.606,38.739 22.641,38.64 23.663,38.56 C24.006,38.379 25.94,36.937 26.048,36.718 C26.914,35.999 28.084,34.201 28.074,33.182 L28.289,27.535 C28.3,27.246 27.116,26.335 26.927,26.116 C26.698,25.849 27.228,23.278 26.787,23.328 C26.288,23.135 26.04,23.349 25.303,23 C25.121,22.449 25.031,20.128 25.74,20.259 C26.935,20.331 27.684,20.477 29.044,20.012 C29.867,20.012 32.7,17.395 33.517,17.395 L40.754,17.433 C41.217,17.433 42.103,18.653 42.325,18.876 C43.392,20.176 44.817,20.476 46.763,21.113 C47.261,21.174 48.988,20.87 49.139,21.22 C49.481,22.36 49.365,23.513 49.272,23.949 C49.148,24.533 47.988,23.94 47.927,24.697 C47.877,25.311 47.909,26.412 47.74,27.173 C46.712,28.231 45.467,28.898 45.894,29.326 L45.866,34.159 C45.998,35.26 46.34,36.489 46.74,37.196 C47.862,39.67 50.18,39.728 50.446,39.797 C50.568,39.828 61.046,41.183 66.958,46.842 C67.461,47.323 68.567,48.256 69.808,52.059 C71.007,55.733 71.824,67.705 71.421,67.87 C67.999,69.273 63.349,70.735 57.815,68.946 C57.124,68.723 57.888,64.213 57.438,62.062 C56.977,59.856 57.453,55.569 52.679,54.721 C50.689,54.367 44.256,55.489 39.745,56.442 C37.597,56.895 34.689,57.179 33.157,56.872 C32.21,56.683 26.398,55.421 25.328,55.153 C24.618,54.976 23.035,54.885 20.643,55.63 C18.868,56.183 17.915,57.537 17.968,57.065 C18.008,56.721 18.036,37.144 17.964,36.785 z" fill-opacity="0" stroke="#000000" stroke-width="2.91"/>
      </g>
      <g>
        <path d="M37.279,-0 C36.189,-0.013 34.441,1.563 32.338,3.076 C29.563,4.795 26.261,3.581 23.442,2.66 C20.766,1.598 16.497,2.48 16.135,5.827 C16.207,7.777 16.919,10.813 19.289,10.938 C23.272,10.399 27.374,8.623 31.386,9.922 C32.987,10.629 33.275,11.725 33.409,11.699 L41.268,11.699 C41.401,11.725 41.689,10.629 43.291,9.922 C47.303,8.623 51.405,10.399 55.388,10.938 C57.758,10.813 58.473,7.777 58.545,5.827 C58.183,2.48 53.911,1.598 51.235,2.66 C48.416,3.581 45.114,4.795 42.339,3.076 C40.197,1.536 38.425,-0.069 37.34,0.003 C37.32,0.002 37.299,0 37.279,-0 z" fill="#AAD4FF"/>
        <path d="M37.279,-0 C36.189,-0.013 34.441,1.563 32.338,3.076 C29.563,4.795 26.261,3.581 23.442,2.66 C20.766,1.598 16.497,2.48 16.135,5.827 C16.207,7.777 16.919,10.813 19.289,10.938 C23.272,10.399 27.374,8.623 31.386,9.922 C32.987,10.629 33.275,11.725 33.409,11.699 L41.268,11.699 C41.401,11.725 41.689,10.629 43.291,9.922 C47.303,8.623 51.405,10.399 55.388,10.938 C57.758,10.813 58.473,7.777 58.545,5.827 C58.183,2.48 53.911,1.598 51.235,2.66 C48.416,3.581 45.114,4.795 42.339,3.076 C40.197,1.536 38.425,-0.069 37.34,0.003 C37.32,0.002 37.299,0 37.279,-0 z" fill-opacity="0" stroke="#000000" stroke-width="2.91"/>
      </g>
      <g>
        <path d="M25.599,20.368 C38.3,22.346 49.12,21.091 49.12,21.091" fill="#AAD4FF"/>
        <path d="M25.599,20.368 C38.3,22.346 49.12,21.091 49.12,21.091" fill-opacity="0" stroke="#000000" stroke-width="2.91"/>
      </g>
      <g>
        <path d="M25.295,23.052 C37.996,25.029 49.12,24.002 49.12,24.002" fill="#AAD4FF"/>
        <path d="M25.295,23.052 C37.996,25.029 49.12,24.002 49.12,24.002" fill-opacity="0" stroke="#000000" stroke-width="2.91"/>
      </g>
    </g>
    <g>
      <path d="M123.884,110.932 C124.249,110.578 106.936,101.121 94.947,92.226 C95.021,75.52 75.887,57.983 75.887,57.983 L74.973,64.885 C74.868,65.681 79.746,70.581 80.173,77.361 L72.449,75.607 C67.108,74.393 59.669,69.486 53.005,64.669 C50.802,63.076 48.684,61.493 46.754,60.056 L44.031,67.634 L39.569,64.198 L37.5,69.977 L41.524,73.709 L39.587,79.633 L42.295,81.906 L40.42,86.636 C40.42,86.636 54.418,99.425 64.687,109.282 C74.956,119.139 89.742,115.501 89.742,115.501 L109.743,134.295 L123.885,110.933 z M44.031,67.632 C44.031,67.632 59.823,79.745 63.616,82.288 C67.409,84.832 63.842,81.717 63.842,81.717 L44.362,66.713 L44.031,67.632 z M41.297,74.399 C41.297,74.399 55.945,86.722 59.738,89.265 C63.531,91.809 59.928,88.839 59.928,88.839 L41.523,73.707 L41.297,74.399 z M41.995,82.661 C41.995,82.661 53.419,93.134 57.212,95.677 C61.005,98.22 57.437,95.105 57.437,95.105 L42.294,81.905 L41.995,82.661 L41.995,82.661 z" fill="#FFD4AA"/>
      <path d="M123.884,110.932 C124.249,110.578 106.936,101.121 94.947,92.226 C95.021,75.52 75.887,57.983 75.887,57.983 L74.973,64.885 C74.868,65.681 79.746,70.581 80.173,77.361 L72.449,75.607 C67.108,74.393 59.669,69.486 53.005,64.669 C50.802,63.076 48.684,61.493 46.754,60.056 L44.031,67.634 L39.569,64.198 L37.5,69.977 L41.524,73.709 L39.587,79.633 L42.295,81.906 L40.42,86.636 C40.42,86.636 54.418,99.425 64.687,109.282 C74.956,119.139 89.742,115.501 89.742,115.501 L109.743,134.295 L123.885,110.933 z M44.031,67.632 C44.031,67.632 59.823,79.745 63.616,82.288 C67.409,84.832 63.842,81.717 63.842,81.717 L44.362,66.713 L44.031,67.632 z M41.297,74.399 C41.297,74.399 55.945,86.722 59.738,89.265 C63.531,91.809 59.928,88.839 59.928,88.839 L41.523,73.707 L41.297,74.399 z M41.995,82.661 C41.995,82.661 53.419,93.134 57.212,95.677 C61.005,98.22 57.437,95.105 57.437,95.105 L42.294,81.905 L41.995,82.661 L41.995,82.661 z" fill-opacity="0" stroke="#000000" stroke-width="1"/>
    </g>
    <g>
      <g opacity="0.82">
        <path d="M96.818,53.543 C96.818,56.269 94.293,58.478 91.178,58.478 C88.063,58.478 85.538,56.269 85.538,53.543 C85.538,50.817 88.063,48.608 91.178,48.608 C94.293,48.608 96.818,50.817 96.818,53.543 z" fill="#AAD4FF"/>
        <path d="M96.818,53.543 C96.818,56.269 94.293,58.478 91.178,58.478 C88.063,58.478 85.538,56.269 85.538,53.543 C85.538,50.817 88.063,48.608 91.178,48.608 C94.293,48.608 96.818,50.817 96.818,53.543 z" fill-opacity="0" stroke="#000000" stroke-width="1.762"/>
      </g>
      <path d="M92.235,51.076 L93.645,52.838" fill-opacity="0" stroke="#000000" stroke-width="1.762" opacity="0.82"/>
    </g>
    <path d="M89.443,64.518 L92.616,66.986" fill-opacity="0" stroke="#000000" stroke-width="1.762" opacity="0.82"/>
  </g>
</svg>
