<?xml version="1.0" encoding="UTF-8"?>
<!DOCTYPE svg PUBLIC "-//W3C//DTD SVG 1.1//EN" "http://www.w3.org/Graphics/SVG/1.1/DTD/svg11.dtd">
<svg version="1.1" xmlns="http://www.w3.org/2000/svg" xmlns:xlink="http://www.w3.org/1999/xlink" x="0" y="0" width="100" height="100" viewBox="0, 0, 100, 100">
  <g id="Background">
    <rect x="0" y="0" width="100" height="100" fill="#000000" fill-opacity="0"/>
  </g>
  <g id="Layer_1">
    <g>
      <g>
        <g>
          <g>
            <path d="M15.464,44.895 C16.168,54.512 13.301,63.602 9.06,65.198 C4.819,66.794 0.81,60.292 0.106,50.674 C-0.598,41.057 2.27,31.967 6.511,30.371 C10.752,28.775 14.76,35.278 15.464,44.895 z" fill="#FFE4E1"/>
            <path d="M15.464,44.895 C16.168,54.512 13.301,63.602 9.06,65.198 C4.819,66.794 0.81,60.292 0.106,50.674 C-0.598,41.057 2.27,31.967 6.511,30.371 C10.752,28.775 14.76,35.278 15.464,44.895 z" fill-opacity="0" stroke="#000000" stroke-width="4.605"/>
          </g>
          <g>
            <path d="M12.134,46.149 C12.533,51.593 10.909,56.739 8.509,57.643 C6.108,58.546 3.839,54.865 3.441,49.421 C3.042,43.977 4.665,38.831 7.066,37.928 C9.467,37.024 11.736,40.705 12.134,46.149 z" fill="#FFE4E1"/>
            <path d="M12.134,46.149 C12.533,51.593 10.909,56.739 8.509,57.643 C6.108,58.546 3.839,54.865 3.441,49.421 C3.042,43.977 4.665,38.831 7.066,37.928 C9.467,37.024 11.736,40.705 12.134,46.149 z" fill-opacity="0" stroke="#000000" stroke-width="2.303"/>
          </g>
        </g>
        <g>
          <g>
            <path d="M84.536,44.895 C83.832,54.512 86.699,63.602 90.94,65.198 C95.181,66.794 99.19,60.292 99.894,50.674 C100.598,41.057 97.73,31.967 93.489,30.371 C89.248,28.775 85.24,35.278 84.536,44.895 z" fill="#FFE4E1"/>
            <path d="M84.536,44.895 C83.832,54.512 86.699,63.602 90.94,65.198 C95.181,66.794 99.19,60.292 99.894,50.674 C100.598,41.057 97.73,31.967 93.489,30.371 C89.248,28.775 85.24,35.278 84.536,44.895 z" fill-opacity="0" stroke="#000000" stroke-width="4.605"/>
          </g>
          <g>
            <path d="M87.866,46.149 C87.467,51.593 89.091,56.739 91.491,57.643 C93.892,58.546 96.161,54.865 96.559,49.421 C96.958,43.977 95.335,38.831 92.934,37.928 C90.533,37.024 88.264,40.705 87.866,46.149 z" fill="#FFE4E1"/>
            <path d="M87.866,46.149 C87.467,51.593 89.091,56.739 91.491,57.643 C93.892,58.546 96.161,54.865 96.559,49.421 C96.958,43.977 95.335,38.831 92.934,37.928 C90.533,37.024 88.264,40.705 87.866,46.149 z" fill-opacity="0" stroke="#000000" stroke-width="2.303"/>
          </g>
        </g>
        <g>
          <path d="M89.5,55.837 C89.632,71.566 82.103,86.163 69.778,94.07 C57.454,101.977 42.231,101.977 29.907,94.07 C17.583,86.163 10.053,71.566 10.186,55.837 C10.053,40.107 17.583,25.51 29.907,17.603 C42.231,9.696 57.454,9.696 69.778,17.603 C82.103,25.51 89.632,40.107 89.5,55.837 z" fill="#FFE4E1"/>
          <path d="M89.5,55.837 C89.632,71.566 82.103,86.163 69.778,94.07 C57.454,101.977 42.231,101.977 29.907,94.07 C17.583,86.163 10.053,71.566 10.186,55.837 C10.053,40.107 17.583,25.51 29.907,17.603 C42.231,9.696 57.454,9.696 69.778,17.603 C82.103,25.51 89.632,40.107 89.5,55.837 z" fill-opacity="0" stroke="#000000" stroke-width="4"/>
        </g>
      </g>
      <g>
        <g>
          <path d="M24.139,83.956 L75.545,83.956 L75.545,75.72 C75.545,75.72 61.986,61.993 49.134,61.993 C36.283,61.993 24.139,75.72 24.139,75.72 L24.139,83.956 z" fill="#FFFFFF"/>
          <path d="M24.139,83.956 L75.545,83.956 L75.545,75.72 C75.545,75.72 61.986,61.993 49.134,61.993 C36.283,61.993 24.139,75.72 24.139,75.72 L24.139,83.956 z" fill-opacity="0" stroke="#000000" stroke-width="4.415"/>
        </g>
        <g>
          <path d="M46.777,83.956 L46.777,62.679" fill-opacity="0" stroke="#000000" stroke-width="1.472"/>
          <path d="M53.852,83.268 L53.852,63.364" fill-opacity="0" stroke="#000000" stroke-width="1.472"/>
          <path d="M59.986,83.268 L59.986,65.423" fill-opacity="0" stroke="#000000" stroke-width="1.472"/>
          <path d="M66.115,83.268 L66.115,69.541" fill-opacity="0" stroke="#000000" stroke-width="1.472"/>
          <path d="M71.776,83.956 L71.776,72.975" fill-opacity="0" stroke="#000000" stroke-width="1.472"/>
          <path d="M39.703,83.957 L39.703,65.424" fill-opacity="0" stroke="#000000" stroke-width="1.472"/>
          <path d="M33.574,83.268 L33.574,67.481" fill-opacity="0" stroke="#000000" stroke-width="1.472"/>
          <path d="M28.859,83.268 L28.859,71.6" fill-opacity="0" stroke="#000000" stroke-width="1.472"/>
        </g>
      </g>
      <g>
        <g>
          <path d="M49.865,27.918 C49.923,37.864 46.31,47.09 40.401,52.088 C34.493,57.085 27.196,57.085 21.287,52.088 C15.378,47.09 11.765,37.864 11.823,27.918 C11.765,17.972 15.378,8.745 21.287,3.748 C27.196,-1.249 34.493,-1.249 40.401,3.748 C46.31,8.745 49.923,17.972 49.865,27.918 z" fill="#FFFFFF"/>
          <path d="M49.865,27.918 C49.923,37.864 46.31,47.09 40.401,52.088 C34.493,57.085 27.196,57.085 21.287,52.088 C15.378,47.09 11.765,37.864 11.823,27.918 C11.765,17.972 15.378,8.745 21.287,3.748 C27.196,-1.249 34.493,-1.249 40.401,3.748 C46.31,8.745 49.923,17.972 49.865,27.918 z" fill-opacity="0" stroke="#000000" stroke-width="3"/>
        </g>
        <g>
          <path d="M87.862,27.918 C87.92,37.864 84.307,47.09 78.398,52.088 C72.49,57.085 65.193,57.085 59.284,52.088 C53.375,47.09 49.763,37.864 49.82,27.918 C49.763,17.972 53.375,8.745 59.284,3.748 C65.193,-1.249 72.49,-1.249 78.398,3.748 C84.307,8.745 87.92,17.972 87.862,27.918 z" fill="#FFFFFF"/>
          <path d="M87.862,27.918 C87.92,37.864 84.307,47.09 78.398,52.088 C72.49,57.085 65.193,57.085 59.284,52.088 C53.375,47.09 49.763,37.864 49.82,27.918 C49.763,17.972 53.375,8.745 59.284,3.748 C65.193,-1.249 72.49,-1.249 78.398,3.748 C84.307,8.745 87.92,17.972 87.862,27.918 z" fill-opacity="0" stroke="#000000" stroke-width="3"/>
        </g>
      </g>
      <path d="M45.561,49.706 C45.561,49.706 47.882,56.268 50.114,56.334 C52.346,56.399 54.489,49.967 54.489,49.967" fill-opacity="0" stroke="#000000" stroke-width="4.605"/>
    </g>
    <g>
      <g>
        <path d="M31.882,18.957 C31.882,23.354 29.28,26.918 26.07,26.918 C22.86,26.918 20.258,23.354 20.258,18.957 C20.258,14.56 22.86,10.996 26.07,10.996 C29.28,10.996 31.882,14.56 31.882,18.957 z" fill="#000000"/>
        <path d="M31.882,18.957 C31.882,23.354 29.28,26.918 26.07,26.918 C22.86,26.918 20.258,23.354 20.258,18.957 C20.258,14.56 22.86,10.996 26.07,10.996 C29.28,10.996 31.882,14.56 31.882,18.957 z" fill-opacity="0" stroke="#000000" stroke-width="5"/>
      </g>
      <g>
        <path d="M81.797,33.386 C81.797,37.783 79.195,41.347 75.985,41.347 C72.775,41.347 70.173,37.783 70.173,33.386 C70.173,28.989 72.775,25.425 75.985,25.425 C79.195,25.425 81.797,28.989 81.797,33.386 z" fill="#000000"/>
        <path d="M81.797,33.386 C81.797,37.783 79.195,41.347 75.985,41.347 C72.775,41.347 70.173,37.783 70.173,33.386 C70.173,28.989 72.775,25.425 75.985,25.425 C79.195,25.425 81.797,28.989 81.797,33.386 z" fill-opacity="0" stroke="#000000" stroke-width="5"/>
      </g>
    </g>
  </g>
</svg>
