<?xml version="1.0" encoding="UTF-8"?>
<!DOCTYPE svg PUBLIC "-//W3C//DTD SVG 1.1//EN" "http://www.w3.org/Graphics/SVG/1.1/DTD/svg11.dtd">
<svg version="1.1" xmlns="http://www.w3.org/2000/svg" xmlns:xlink="http://www.w3.org/1999/xlink" x="0" y="0" width="90" height="100" viewBox="0, 0, 90, 100">
  <g id="Background">
    <rect x="0" y="0" width="90" height="100" fill="#000000" fill-opacity="0"/>
  </g>
  <g id="Layer_x0020_1">
    <path d="M38.987,8.617 C31.368,-1.659 16.761,3.868 9.723,11.632 C1.347,20.879 -1.075,36.055 2.28,47.788 C2.835,49.723 3.416,51.758 4.223,53.668 C4.652,54.673 6.821,58.291 7.175,58.718 C10.051,62.211 13.81,64.522 17.972,65.527 C20.545,66.155 20.924,65.954 22.917,66.105 C26.549,66.105 30.258,65.15 33.739,63.241 C35.934,62.01 37.952,60.954 39.466,58.919 C48.17,46.984 48.598,31.105 43.502,17.688 C42.241,14.321 41.156,11.507 39.037,8.642 z" fill="#FFFFFF"/>
    <path d="M42.973,55.979 C41.207,58.919 38.457,61.382 38.053,61.683 C35.43,63.718 31.141,65.753 27.912,66.482 C31.671,66.784 35.253,66.909 39.037,66.457 C39.668,66.382 42.695,65.954 43.906,65.653 L44.158,65.578 C44.562,59.422 45.521,53.793 45.95,47.939 C45.344,49.924 44.663,53.19 42.973,55.979 z" fill="#FFFFFF"/>
    <path d="M44.385,17.286 C46.984,24.145 48.17,31.632 47.615,38.919 C47.211,43.969 47.085,44.271 47.034,43.969 C47.211,47.763 45.697,58.392 45.369,62.186 C44.764,68.97 44.739,75.804 43.906,82.563 C43.502,85.804 42.695,89.095 42.165,92.362 L41.257,96.809 L41.131,98.216 C41.535,97.161 43.099,97.412 43.174,97.714 C43.275,98.141 43.755,98.744 43.906,98.568 L44.083,98.744 L44.537,99.171 C44.612,99.146 44.612,99.07 44.688,99.07 C45.394,99.246 45.193,98.191 46.05,97.864 C46.732,97.613 46.706,98.492 46.732,98.693 C47.06,98.291 47.362,98.92 47.665,98.266 C48.422,96.558 49.38,97.261 49.305,98.166 C49.305,98.216 49.406,98.367 49.355,98.392 L50.49,98.844 C50.49,98.819 51.197,96.658 52.055,96.734 C52.181,96.734 52.408,96.759 52.483,96.834 C52.811,96.533 53.064,96.005 53.644,95.93 C53.871,95.904 54.376,96.005 54.451,96.156 C55.284,95.754 55.511,95 56.974,94.899 L58.286,94.849 C58.538,94.849 58.841,94.925 59.043,94.925 L60.052,94.774 L62.726,94.724 L68.806,93.869 C69.436,93.819 70.597,93.216 71.076,93.819 C71.177,93.97 71.328,94.246 71.379,94.322 L72.312,95.703 L73.624,94.146 C74.305,94.121 73.7,94.849 74.331,95.402 C74.583,95.628 75.239,95.93 75.542,95.251 C75.642,95 75.718,94.698 75.895,94.573 C76.298,94.296 75.844,94.146 76.374,94.02 C76.954,93.869 76.828,94.749 77.232,94.749 C77.459,94.749 77.661,94.296 78.216,94.347 C78.216,93.844 78.039,93.568 78.468,93.141 C78.594,93.015 78.745,93.04 78.872,92.814 C79.326,92.06 79.174,91.533 80.839,90.578 C82.656,89.548 83.791,90.804 84.523,89.548 C84.951,88.844 84.447,89.397 84.523,88.467 C85.557,77.588 86.238,66.658 87.247,55.778 C87.449,53.492 87.954,47.135 88.054,46.381 C90.073,31.331 88.66,17.135 78.317,5.25 C77.938,4.823 76.853,3.115 74.583,2.26 C71.959,1.28 68.074,1.155 66.838,1.13 C56.041,0.753 41.509,1.23 30.838,2.386 C38.886,3.893 41.812,10.552 44.385,17.286 z M76.803,4.873 C76.652,3.542 76.954,5.979 76.803,4.873 z" fill="#FFFFFF"/>
    <path d="M46.53,67.01 C46.53,66.859 47.211,66.658 47.236,66.658 C47.362,66.633 47.589,66.633 47.766,66.633 C47.816,66.633 48.245,66.633 48.321,66.733 C48.422,66.834 48.397,67.01 48.296,67.11 C48.245,67.211 48.094,67.286 47.917,67.336 C47.715,67.387 47.438,67.361 47.287,67.361 C47.236,67.361 46.908,67.412 46.782,67.361 C46.505,67.211 46.429,67.11 46.505,67.01 z M50.516,67.236 C50.566,67.261 50.617,67.286 50.692,67.311 C50.869,67.361 51.096,67.311 51.323,67.261 C51.651,67.211 52.004,67.16 52.256,67.06 C52.357,67.035 52.408,66.985 52.483,66.934 C52.635,66.884 52.711,66.708 52.66,66.557 C52.61,66.407 52.433,66.331 52.282,66.382 C52.206,66.407 52.105,66.407 51.979,66.407 C51.575,66.482 51.045,66.532 50.718,66.608 C50.642,66.633 50.617,66.658 50.566,66.683 C50.415,66.683 50.289,66.784 50.289,66.934 C50.289,67.085 50.39,67.211 50.541,67.211 z M54.981,66.708 C55.284,66.758 55.612,66.834 55.914,66.809 C56.141,66.809 56.369,66.733 56.57,66.658 C56.722,66.633 56.797,66.482 56.772,66.331 C56.747,66.181 56.596,66.105 56.444,66.13 L55.006,66.13 C54.855,66.13 54.729,66.231 54.703,66.382 C54.703,66.532 54.804,66.658 54.956,66.683 z M59.169,66.507 L60.531,66.382 C60.682,66.356 60.809,66.231 60.783,66.055 C60.758,65.904 60.632,65.779 60.455,65.804 L59.093,65.929 C58.942,65.954 58.816,66.08 58.841,66.256 C58.866,66.407 58.992,66.532 59.169,66.507 z M63.382,65.477 C63.407,65.377 63.836,65.452 63.937,65.402 C64.139,65.351 64.315,65.301 64.492,65.276 C64.769,65.226 65.047,65.201 65.4,65.201 C65.551,65.176 65.678,65.276 65.678,65.427 C65.703,65.578 65.577,65.703 65.45,65.703 L64.113,66.055 C63.962,66.08 63.483,66.055 63.306,66.005 C62.953,65.904 62.978,65.653 63.104,65.527 C63.18,65.427 63.306,65.402 63.407,65.452 z M67.771,65.402 C67.898,65.527 68.175,65.578 68.503,65.578 C68.755,65.578 69.033,65.578 69.209,65.502 C69.285,65.477 69.31,65.427 69.361,65.402 C69.537,65.377 69.638,65.226 69.613,65.05 C69.588,64.874 69.436,64.774 69.26,64.799 C69.209,64.799 69.184,64.774 69.108,64.774 C68.907,64.774 68.579,64.924 68.301,64.949 C68.251,64.949 68.175,64.975 68.15,64.949 C68.125,64.949 68.125,64.975 68.125,64.975 C67.998,64.874 67.847,64.899 67.746,65.025 C67.645,65.15 67.67,65.301 67.797,65.402 z M72.237,65.201 C72.363,65.15 72.514,65.125 72.691,65.1 C72.968,65.075 73.296,65.075 73.574,64.975 C73.725,64.924 73.851,64.874 73.952,64.799 C74.078,64.748 74.154,64.598 74.104,64.447 C74.053,64.321 73.902,64.246 73.75,64.296 C73.649,64.321 73.549,64.296 73.422,64.296 C73.145,64.321 72.817,64.346 72.539,64.397 C72.312,64.447 72.111,64.522 71.934,64.623 C71.783,64.698 71.732,64.899 71.808,65.05 C71.884,65.201 72.085,65.251 72.237,65.176 z M76.803,64.472 C77.257,64.472 77.711,64.497 78.165,64.497 C78.367,64.497 78.569,64.472 78.771,64.447 C78.922,64.422 79.023,64.296 79.023,64.145 C78.998,63.995 78.872,63.894 78.72,63.894 L76.803,63.894 C76.626,63.894 76.5,64.02 76.5,64.196 C76.5,64.371 76.626,64.497 76.803,64.497 z M81.218,64.246 C81.47,64.296 81.748,64.296 82.05,64.271 C82.328,64.221 82.605,64.12 82.832,64.02 C82.958,63.969 83.034,63.819 82.984,63.693 C82.933,63.567 82.782,63.492 82.656,63.542 L81.268,63.743 C81.117,63.743 80.991,63.844 80.991,63.995 C80.991,64.145 81.092,64.271 81.243,64.271 z M84.75,63.593 L85.784,63.442 C85.935,63.417 86.036,63.291 86.011,63.14 C85.986,62.99 85.86,62.889 85.708,62.914 L84.674,63.065 C84.523,63.09 84.422,63.216 84.447,63.366 C84.472,63.517 84.598,63.618 84.75,63.593 z M50.743,33.668 C50.844,33.668 50.919,33.743 50.97,33.844 C51.02,33.969 50.97,34.12 50.818,34.195 C50.768,34.246 50.667,34.371 50.49,34.472 C50.213,34.622 49.784,34.698 49.532,34.673 C49.179,34.622 48.977,34.497 48.952,34.296 C48.901,34.145 48.952,33.994 49.103,33.944 C49.229,33.894 49.355,33.944 49.431,34.045 L49.406,33.994 L49.406,33.969 C49.431,33.969 49.456,33.919 49.481,33.919 C49.708,33.869 50.011,33.768 50.263,33.718 C50.39,33.693 50.49,33.718 50.566,33.718 L50.591,33.718 C50.617,33.718 50.642,33.718 50.667,33.718 C50.718,33.693 50.743,33.693 50.793,33.693 L50.793,33.693 z M49.38,33.894 C49.38,33.894 49.38,33.894 49.38,33.919 C49.38,33.919 49.38,33.919 49.38,33.919 C49.38,33.919 49.38,33.919 49.38,33.919 C49.38,33.894 49.38,33.894 49.38,33.894 L49.38,33.894 z M53.291,33.793 C53.442,33.919 53.644,33.969 53.871,33.969 C54.123,33.969 54.376,33.869 54.577,33.818 C54.729,33.793 54.855,33.643 54.83,33.492 C54.804,33.341 54.653,33.215 54.502,33.241 L53.543,33.291 C53.417,33.215 53.24,33.291 53.19,33.416 C53.114,33.542 53.19,33.718 53.316,33.768 z M57.63,33.366 L59.497,33.065 C59.648,33.04 59.724,32.914 59.724,32.763 C59.699,32.612 59.572,32.512 59.421,32.537 L57.554,32.839 C57.403,32.864 57.302,32.989 57.327,33.14 C57.352,33.291 57.479,33.391 57.63,33.366 z M62.095,32.788 C62.448,32.839 62.802,32.864 63.13,32.839 C63.457,32.813 63.785,32.738 64.139,32.663 C64.29,32.638 64.391,32.512 64.366,32.361 C64.34,32.21 64.214,32.11 64.063,32.135 L62.12,32.16 C61.944,32.135 61.792,32.286 61.792,32.436 C61.767,32.612 61.919,32.763 62.07,32.763 z M67.09,31.984 L68.604,31.733 C68.755,31.708 68.856,31.557 68.831,31.406 C68.806,31.256 68.654,31.155 68.528,31.18 L67.015,31.431 C66.863,31.457 66.762,31.607 66.788,31.758 C66.813,31.909 66.964,32.009 67.115,31.984 z M71.556,31.155 C71.858,31.205 72.186,31.256 72.514,31.23 C72.842,31.205 73.145,31.105 73.422,31.055 C73.574,31.029 73.675,30.904 73.649,30.753 C73.624,30.602 73.498,30.502 73.347,30.527 C73.12,30.527 72.893,30.502 72.615,30.527 C72.262,30.552 71.884,30.627 71.556,30.627 C71.404,30.627 71.278,30.728 71.278,30.879 C71.278,31.029 71.379,31.155 71.53,31.155 z M76.273,30.979 C76.626,30.979 76.954,31.004 77.307,30.979 C77.459,30.979 77.61,30.929 77.762,30.929 C77.913,30.929 78.039,30.803 78.039,30.678 C78.039,30.527 77.913,30.401 77.787,30.401 C77.635,30.376 77.484,30.351 77.333,30.326 C76.979,30.301 76.652,30.326 76.298,30.326 C76.122,30.326 75.97,30.477 75.97,30.653 C75.97,30.828 76.122,30.979 76.298,30.979 z M80.814,30.05 L80.839,30.05 C80.865,30.05 80.89,30.024 80.965,30.024 C81.117,29.999 81.369,29.974 81.596,29.949 C81.899,29.924 82.202,29.949 82.227,29.949 C82.378,29.924 82.504,30.024 82.53,30.175 C82.555,30.326 82.454,30.452 82.303,30.477 C82.252,30.477 81.975,30.552 81.647,30.602 C81.394,30.627 81.142,30.653 80.991,30.653 C80.637,30.627 80.537,30.326 80.537,30.326 C80.537,30.175 80.663,30.075 80.814,30.075 z M85.506,30.15 L86.995,30.024 C87.146,29.999 87.247,29.874 87.222,29.723 C87.197,29.572 87.071,29.472 86.919,29.497 L85.456,29.597 C85.305,29.622 85.178,29.748 85.204,29.899 C85.229,30.05 85.355,30.175 85.506,30.15 z M41.207,7.838 C41.207,7.687 41.535,7.512 41.585,7.512 C41.812,7.436 42.266,7.336 42.594,7.285 C42.821,7.26 42.998,7.26 43.023,7.26 C43.2,7.21 43.376,7.311 43.427,7.486 C43.477,7.662 43.376,7.838 43.2,7.889 C43.174,7.889 42.998,7.989 42.746,8.039 C42.392,8.115 41.938,8.215 41.686,8.19 C41.282,8.165 41.181,7.863 41.207,7.863 z M46.404,6.858 C46.53,6.909 46.757,6.883 47.009,6.833 C47.211,6.783 47.438,6.733 47.615,6.657 C47.766,6.607 47.867,6.532 47.942,6.507 C48.094,6.481 48.195,6.331 48.17,6.18 C48.144,6.029 47.993,5.929 47.842,5.954 L46.58,6.23 C46.404,6.18 46.227,6.28 46.151,6.456 C46.101,6.632 46.202,6.808 46.378,6.883 z M51.02,6.13 L52.887,6.105 C53.038,6.105 53.165,5.979 53.165,5.803 C53.165,5.652 53.038,5.527 52.862,5.527 L50.995,5.552 C50.844,5.552 50.718,5.677 50.718,5.828 C50.718,5.979 50.844,6.105 51.02,6.105 z M55.637,6.054 C55.914,6.079 56.823,6.029 57.251,5.904 C57.403,5.853 57.428,5.728 57.428,5.703 C57.428,5.652 57.352,5.351 57.151,5.326 C56.722,5.225 55.965,5.376 55.713,5.351 C55.511,5.326 55.334,5.476 55.309,5.677 C55.284,5.878 55.435,6.054 55.637,6.079 z M58.967,6.004 L60.556,5.954 C60.708,5.954 60.834,5.828 60.834,5.677 C60.834,5.527 60.708,5.401 60.556,5.401 L58.967,5.451 C58.816,5.451 58.689,5.577 58.689,5.728 C58.689,5.878 58.816,6.004 58.967,6.004 z M63.104,5.853 L64.744,5.803 C64.895,5.803 65.022,5.677 65.022,5.527 C65.022,5.376 64.895,5.25 64.744,5.25 L63.079,5.275 C62.928,5.275 62.802,5.401 62.802,5.552 C62.802,5.703 62.928,5.828 63.079,5.828 z M66.661,5.728 L68.2,5.703 C68.352,5.703 68.453,5.577 68.453,5.426 C68.453,5.275 68.326,5.175 68.175,5.175 L66.636,5.2 C66.485,5.2 66.384,5.326 66.384,5.476 C66.384,5.627 66.51,5.728 66.661,5.728 z M70.874,5.652 L72.388,5.527 C72.539,5.527 72.64,5.376 72.615,5.25 C72.59,5.1 72.464,4.999 72.338,5.024 L70.824,5.15 C70.673,5.15 70.572,5.301 70.597,5.426 C70.597,5.577 70.748,5.677 70.874,5.652 z M74.608,5.552 C75.012,5.527 75.415,5.527 75.819,5.476 C76.097,5.451 76.374,5.401 76.652,5.351 C76.803,5.326 76.929,5.175 76.904,5.024 C76.879,4.873 76.727,4.748 76.576,4.773 L74.558,4.848 C74.356,4.848 74.23,5.024 74.23,5.2 C74.23,5.401 74.406,5.527 74.583,5.527 z" fill="#A6A6A6"/>
    <path d="M43.351,0.476 C49.91,0.15 59.799,-0.076 66.964,0.024 C68.705,0.049 73.019,0.426 75.617,1.557 C78.241,2.713 79.174,4.622 79.679,5.225 C84.396,10.904 87.298,17.085 88.761,23.718 C90.375,30.979 90.325,38.718 89.114,46.582 C89.038,47.135 88.635,50.753 88.534,51.834 C87.323,64.07 86.616,76.382 85.456,88.618 C85.456,88.693 85.431,88.769 85.38,88.819 C85.431,88.894 85.456,88.97 85.481,89.045 C85.532,89.246 85.456,89.573 85.279,89.874 C85.078,90.251 84.775,90.603 84.598,90.703 C84.371,90.854 84.068,90.93 83.715,90.955 C83.135,91.005 82.429,90.93 82,91.005 C81.672,91.055 81.344,91.206 81.041,91.407 C80.713,91.633 80.41,91.884 80.133,92.136 C80.057,92.211 80.007,92.286 79.956,92.387 C79.805,92.663 79.704,92.99 79.527,93.291 C79.351,93.593 79.174,93.593 78.998,93.769 C78.947,93.819 78.922,93.869 78.872,93.995 C78.821,94.121 78.821,94.698 78.745,94.925 C78.695,95.1 78.594,95.201 78.518,95.251 C78.367,95.301 78.266,95.327 78.165,95.251 C78.115,95.226 78.039,95.176 77.989,95.1 C77.913,95.126 77.837,95.201 77.762,95.226 C77.585,95.327 77.383,95.427 77.181,95.402 C77.03,95.402 76.828,95.327 76.601,95.126 L76.475,94.95 C76.45,94.975 76.45,95 76.424,95.025 C76.147,95.201 76.097,95.703 75.819,95.98 C75.718,96.08 75.592,96.181 75.441,96.206 C74.886,96.432 74.331,96.306 73.902,96.005 C73.675,95.854 73.523,95.628 73.422,95.377 C73.246,95.653 72.968,96.156 72.666,96.332 C72.464,96.457 72.262,96.482 72.06,96.382 C71.909,96.357 71.833,96.281 71.757,96.206 C71.656,96.105 71.682,95.98 71.581,95.854 L70.673,94.774 C70.622,94.698 70.42,94.523 70.42,94.422 C70.345,94.422 70.244,94.447 70.168,94.447 C69.714,94.523 69.209,94.724 68.856,94.749 C68.453,94.774 68.049,94.824 67.67,94.874 C66.056,95.1 64.441,95.452 62.802,95.603 L60.077,95.628 L58.992,95.729 L58.185,95.578 C57.781,95.653 57.302,95.729 56.873,95.829 C56.671,95.879 56.469,95.93 56.318,96.005 C55.94,96.181 55.561,96.583 55.158,96.834 C54.931,96.985 54.678,97.111 54.426,97.161 C54.325,97.186 54.199,97.186 54.073,97.111 C53.972,97.06 53.72,97.01 53.669,96.91 L52.811,97.714 C52.584,97.839 52.231,97.915 51.979,97.789 L51.979,97.789 C51.928,97.839 51.903,97.915 51.853,97.99 C51.676,98.291 51.55,98.643 51.424,98.869 C51.323,99.07 51.348,99.246 51.247,99.372 C51.172,99.472 51.071,99.573 50.894,99.648 C50.516,99.799 50.036,99.774 49.608,99.598 C49.153,99.422 48.775,99.121 48.598,98.819 C48.573,98.794 48.548,98.719 48.497,98.618 C48.422,98.769 48.346,98.945 48.27,99.07 C48.119,99.271 47.942,99.422 47.715,99.447 C47.488,99.497 47.034,99.724 46.732,99.724 C46.53,99.724 46.328,99.673 46.202,99.548 C46.151,99.497 46.076,99.397 46.025,99.246 C45.899,99.447 45.748,99.648 45.596,99.774 C45.42,99.899 45.243,100 45.016,100 C44.814,100 44.638,99.975 44.486,99.925 C44.335,99.874 44.184,99.799 44.007,99.673 C43.957,99.623 43.931,99.523 43.881,99.422 C43.856,99.422 43.83,99.397 43.805,99.372 C43.755,99.372 43.755,99.447 43.679,99.447 C43.629,99.447 43.603,99.447 43.553,99.447 C43.376,99.422 43.225,99.347 43.149,99.322 C42.998,99.271 42.922,99.171 42.897,99.146 C42.847,99.095 42.771,98.643 42.519,98.467 C42.292,98.317 41.888,98.467 41.863,98.568 C41.711,98.97 41.585,99.347 41.383,99.397 C41.181,99.447 40.954,99.447 40.702,99.271 C40.425,99.045 40.248,98.719 40.147,98.317 C40.046,97.839 40.097,97.286 40.198,96.935 C40.223,96.884 40.324,96.784 40.399,96.683 C40.399,96.583 40.778,95.377 40.879,94.874 C41.106,93.794 41.156,92.663 41.333,91.558 C41.383,91.256 41.459,90.955 41.535,90.653 C42.014,87.914 42.645,85.201 42.998,82.487 C43.25,80.477 43.427,78.442 43.553,76.407 C43.78,73.14 43.906,69.874 44.108,66.608 C42.872,67.01 39.819,67.387 39.163,67.462 C36.741,67.738 34.32,67.789 31.898,67.688 C29.35,67.588 26.827,67.361 24.329,67.085 C24.203,67.085 24.102,67.06 23.976,67.06 C21.857,67.16 19.738,66.959 17.72,66.482 C13.355,65.427 9.369,63.015 6.418,59.296 C5.863,58.593 3.819,54.773 3.466,53.969 C2.634,52.035 2.053,49.974 1.498,48.015 C-0.217,42.009 -0.469,35.15 0.792,28.617 C2.053,22.06 4.803,15.803 9.092,11.079 C13.027,6.708 19.208,3.115 25.313,2.311 C26.398,2.084 27.533,1.909 28.719,1.733 C33.134,1.105 38.154,0.753 43.351,0.476 z M78.317,5.301 C77.938,4.873 76.853,3.165 74.583,2.311 C71.959,1.331 68.074,1.205 66.838,1.18 C61.187,0.979 54.88,1.054 48.624,1.23 C42.418,1.406 36.262,1.833 30.838,2.411 C34.193,3.039 37.322,4.773 39.769,8.039 C40.652,9.22 41.358,10.401 41.964,11.607 C42.897,13.416 43.603,15.301 44.36,17.336 C46.959,24.195 48.144,31.683 47.589,38.969 C47.009,46.281 46.959,43.643 46.959,43.643 C46.984,43.869 47.009,44.07 47.009,44.296 C47.06,45.703 46.908,47.085 46.807,48.467 C46.454,53.065 45.722,57.613 45.319,62.236 C44.89,66.985 44.764,71.733 44.436,76.482 C44.284,78.517 44.108,80.578 43.856,82.613 C43.452,85.854 42.645,89.146 42.115,92.412 C41.913,93.668 41.358,96.859 41.207,96.859 C41.207,96.859 41.207,96.859 41.207,96.859 C41.131,96.985 41.055,97.111 41.055,97.186 C41.005,97.387 40.98,97.663 41.03,97.94 C41.055,98.04 41.055,98.166 41.106,98.241 C41.131,98.166 41.156,98.09 41.181,98.04 C41.257,97.889 41.358,97.789 41.434,97.739 C41.535,97.663 41.686,97.588 41.863,97.563 C42.09,97.513 42.392,97.513 42.569,97.487 C42.771,97.487 43.074,97.487 43.124,97.714 C43.225,98.141 43.704,98.744 43.856,98.568 C43.881,98.518 43.957,98.618 43.982,98.668 C44.007,98.693 44.032,98.719 44.032,98.744 C44.057,98.744 44.083,98.744 44.083,98.744 C44.284,98.693 44.259,99.271 44.486,99.196 C44.562,99.171 44.562,99.095 44.638,99.095 C44.713,99.121 44.814,99.121 44.915,99.121 C45.016,99.121 45.067,98.995 45.117,98.894 C45.243,98.693 45.369,98.442 45.521,98.266 C45.647,98.09 45.823,97.99 46,97.915 C46.177,97.839 46.479,97.864 46.631,98.216 C46.656,98.317 46.656,98.543 46.681,98.744 C46.807,98.593 47.312,98.618 47.488,98.593 C47.488,98.593 47.514,98.568 47.514,98.568 L47.514,98.568 C47.514,98.568 47.514,98.543 47.514,98.543 C47.539,98.492 47.589,98.417 47.615,98.342 C47.741,98.065 47.867,97.764 48.069,97.563 C48.22,97.412 48.422,97.312 48.674,97.312 C48.825,97.312 49.053,97.362 49.153,97.663 C49.204,97.789 49.28,98.065 49.254,98.241 C49.254,98.291 49.355,98.442 49.305,98.467 C49.406,98.618 49.633,98.744 49.835,98.844 C50.036,98.92 50.238,98.97 50.415,98.92 C50.364,98.844 50.49,98.668 50.566,98.543 C50.718,98.241 50.894,97.789 51.096,97.437 C51.222,97.236 51.373,97.06 51.525,96.935 C51.676,96.809 51.828,96.784 51.979,96.809 C52.105,96.809 52.332,96.834 52.408,96.91 C52.635,96.709 52.837,96.382 53.089,96.206 C53.24,96.105 53.392,96.03 53.568,96.005 C53.795,95.98 54.3,96.08 54.376,96.231 C54.451,96.206 54.502,96.156 54.577,96.105 C55.006,95.829 55.435,95.427 55.839,95.226 C56.116,95.1 56.495,95 56.873,94.975 C57.226,94.95 57.579,94.95 57.907,94.975 C57.983,94.95 58.084,94.95 58.185,94.95 C58.437,94.95 58.74,95.025 58.942,95.025 L59.951,94.874 L62.625,94.824 C64.24,94.673 65.829,94.296 67.443,94.095 C67.847,94.045 68.276,93.995 68.68,93.97 C69.033,93.945 69.487,93.769 69.916,93.693 C70.168,93.643 70.42,93.643 70.622,93.693 C70.723,93.719 70.849,93.794 70.95,93.92 C71.051,94.07 71.202,94.347 71.253,94.422 C71.253,94.422 72.085,95.477 72.085,95.477 C72.136,95.553 72.161,95.603 72.186,95.678 C72.186,95.729 72.211,95.754 72.211,95.804 L72.211,95.829 L72.893,94.824 L73.17,94.548 C73.195,94.523 73.246,94.422 73.271,94.397 C73.372,94.296 73.473,94.271 73.523,94.271 C73.624,94.271 73.927,94.296 73.902,94.673 C73.876,95.025 74.003,95.327 74.23,95.528 C74.482,95.729 74.81,95.829 75.163,95.729 C75.314,95.678 75.365,95.528 75.441,95.352 C75.542,95.1 75.617,94.799 75.794,94.673 C75.869,94.623 76.021,94.372 75.996,94.347 C75.869,94.246 76.172,94.146 76.273,94.121 C76.374,94.095 76.475,94.095 76.601,94.196 C76.652,94.246 76.702,94.296 76.752,94.372 C76.803,94.472 76.828,94.648 76.904,94.724 C77.005,94.799 77.055,94.849 77.131,94.849 C77.282,94.849 77.383,94.698 77.509,94.623 C77.686,94.523 77.862,94.447 78.115,94.447 L78.115,94.447 C78.115,94.171 78.039,93.819 78.064,93.744 C78.165,93.492 78.266,93.342 78.367,93.241 C78.493,93.116 78.645,93.141 78.771,92.914 C78.947,92.638 79.023,92.337 79.174,92.06 C79.25,91.909 79.376,91.759 79.502,91.633 C79.855,91.306 80.284,90.93 80.738,90.678 C81.066,90.477 81.42,90.352 81.798,90.276 C82.252,90.201 82.958,90.276 83.564,90.201 C83.766,90.176 83.968,90.151 84.094,90.05 C84.195,90 84.321,89.799 84.422,89.623 C84.497,89.472 84.598,89.347 84.598,89.246 C84.573,89.146 84.497,89.095 84.472,88.995 C84.447,88.894 84.422,88.769 84.447,88.643 C84.447,88.618 84.447,88.593 84.472,88.568 C84.472,88.568 84.472,88.543 84.472,88.543 C85.506,77.663 86.188,66.733 87.197,55.854 C87.399,53.567 87.903,47.211 88.004,46.457 C89.064,38.718 89.19,31.13 87.626,23.994 C86.162,17.311 83.286,11.105 78.266,5.326 z M22.891,66.105 C26.524,66.105 30.233,65.15 33.714,63.241 C35.051,62.512 36.313,61.809 37.448,60.929 C38.179,60.351 38.835,59.723 39.441,58.919 C43.805,52.939 46.076,46.004 46.631,38.894 C47.186,31.733 46.025,24.421 43.477,17.688 C42.72,15.678 42.014,13.843 41.106,12.059 C40.526,10.904 39.844,9.773 38.987,8.642 C35.985,4.572 31.847,2.964 27.508,3.039 C20.974,3.14 14.011,6.934 9.723,11.657 C5.535,16.281 2.835,22.361 1.599,28.793 C0.363,35.2 0.59,41.934 2.28,47.814 C2.835,49.748 3.416,51.783 4.223,53.693 C4.652,54.698 6.821,58.316 7.175,58.743 C10.051,62.236 13.81,64.547 17.972,65.552 C19.183,65.854 20.419,66.03 21.681,66.105 C21.731,66.105 21.756,66.105 21.807,66.105 C22.16,66.105 22.538,66.105 22.917,66.155 z M45.95,47.964 C45.344,49.949 44.663,53.216 42.973,56.005 C41.207,58.944 38.457,61.407 38.053,61.708 C36.893,62.613 35.581,63.316 34.193,64.095 C32.175,65.226 30.056,66.03 27.912,66.507 C29.249,66.608 30.586,66.708 31.923,66.733 C34.294,66.809 36.666,66.758 39.037,66.457 C39.668,66.382 42.695,65.954 43.906,65.653 C44.007,65.628 44.083,65.578 44.158,65.578 C44.158,65.578 44.158,65.578 44.158,65.578 C44.234,64.422 44.31,63.266 44.411,62.11 C44.764,58.14 45.344,54.246 45.748,50.301 C45.823,49.497 45.899,48.718 45.95,47.914 z M76.828,4.899 C76.677,3.567 76.979,6.004 76.828,4.899 z" fill="#000000"/>
    <path d="M33.336,51.608 C32.957,52.06 32.402,52.512 32.2,52.788 C31.116,54.296 29.526,55.326 27.71,56.005 C25.868,56.683 23.8,57.01 21.706,57.11 C20.823,57.16 19.889,57.135 18.981,57.01 C18.098,56.884 17.215,56.658 16.458,56.281 C16.282,56.206 16.156,56.105 16.004,56.005 C15.752,55.804 15.525,55.603 15.298,55.402 C14.491,54.773 13.709,54.12 13.002,53.417 C12.321,52.713 11.69,51.984 11.211,51.18 C10.883,50.628 10.757,49.999 10.53,49.396 C10.429,49.12 10.278,48.869 10.126,48.592 C10.101,48.517 9.975,48.467 9.874,48.492 C9.773,48.517 9.723,48.618 9.748,48.693 C9.824,49.02 9.849,49.321 9.899,49.648 C9.924,49.874 10,50.075 10.051,50.301 C10.152,50.678 10.278,51.055 10.454,51.432 C10.833,52.135 11.287,52.814 11.842,53.417 C12.649,54.346 13.633,55.15 14.642,55.954 C14.945,56.18 15.197,56.432 15.5,56.658 C15.651,56.758 15.802,56.859 15.979,56.959 C16.837,57.386 17.821,57.638 18.83,57.763 C19.814,57.889 20.823,57.914 21.781,57.864 C23.976,57.713 26.146,57.336 28.038,56.608 C29.955,55.854 31.595,54.698 32.68,53.065 C32.907,52.738 33.588,52.185 33.891,51.633 C33.966,51.507 34.42,50.527 33.865,50.678 C33.815,50.703 33.563,51.356 33.31,51.633 z" fill="#A6A6A6"/>
    <path d="M10.555,20.2 C10.606,20.25 10.631,20.351 10.555,20.401 C10.479,20.477 10.379,20.477 10.278,20.426 C10.227,20.401 10.152,20.25 10.227,20.075 C10.303,19.848 10.58,19.472 10.58,19.446 C10.782,19.07 11.06,18.718 11.362,18.391 C11.791,17.914 12.296,17.461 12.725,17.009 C13.027,16.683 13.381,16.381 13.734,16.105 C14.264,15.678 14.819,15.301 15.374,14.899 C16.711,13.944 18.098,13.09 19.612,12.487 C21.176,11.884 22.866,11.532 24.809,11.607 C25.111,11.632 25.439,11.657 25.742,11.733 C26.171,11.808 26.6,11.934 27.004,12.009 C27.508,12.11 28.063,12.185 28.593,12.311 C28.845,12.361 29.072,12.436 29.299,12.512 C31.191,13.14 32.932,14.195 34.345,15.477 C35.758,16.733 36.868,18.24 37.574,19.773 C37.927,20.552 38.154,21.356 38.306,22.185 C38.558,23.441 38.533,24.522 38.785,25.803 C38.81,25.879 38.734,25.979 38.633,25.979 C38.533,25.979 38.432,25.929 38.406,25.854 C38.078,24.472 37.725,23.09 37.322,21.708 C37.145,21.13 36.968,20.552 36.691,20.024 C36.035,18.592 34.975,17.185 33.638,15.979 C32.327,14.798 30.712,13.793 28.946,13.19 C28.744,13.115 28.542,13.064 28.341,13.014 C27.811,12.889 27.281,12.838 26.777,12.713 C26.373,12.612 25.944,12.512 25.515,12.436 C25.263,12.386 25.011,12.336 24.733,12.336 C22.967,12.26 21.378,12.562 19.94,13.115 C18.451,13.693 17.114,14.497 15.828,15.401 C15.247,15.778 14.667,16.13 14.112,16.532 C13.759,16.783 13.431,17.059 13.128,17.361 C12.699,17.813 12.195,18.24 11.741,18.718 C11.463,19.019 11.186,19.346 11.009,19.673 C10.984,19.698 10.858,19.899 10.732,20.1 C10.681,20.175 10.555,20.25 10.53,20.301 C10.555,20.326 10.58,20.351 10.555,20.326 C10.53,20.326 10.53,20.301 10.53,20.301 L10.505,20.276 L10.505,20.276 z" fill="#A6A6A6"/>
    <path d="M26.221,24.999 C27.432,25.627 28.467,26.708 29.274,27.914 C30.813,30.251 31.57,33.643 30.889,36.532 C30.334,38.969 28.29,41.306 25.969,42.261 C23.573,43.266 20.016,42.713 18.048,41.13 C16.837,40.15 16.332,38.467 16.156,38.09 C15.651,36.959 15.475,35.828 15.475,34.673 C15.475,33.542 15.676,32.411 15.979,31.256 C16.408,29.597 17.165,27.838 18.35,26.607 C20.167,24.723 23.875,23.743 26.221,24.974 z M24.96,40.929 C26.272,40.527 27.281,39.597 27.533,39.271 C28.568,37.914 29.224,36.23 29.451,34.547 C29.501,34.17 29.501,33.793 29.451,33.391 C29.4,32.788 29.249,32.16 29.097,31.607 C28.946,31.08 28.82,30.552 28.643,30.024 C28.517,29.698 28.391,29.371 28.214,29.07 C27.76,28.266 27.054,27.512 26.247,26.934 C21.882,23.843 17.947,27.462 16.963,32.436 C16.635,34.095 17.215,37.009 18.325,38.869 C19.713,41.18 22.463,41.708 24.96,40.954 z" fill="#704607"/>
    <path d="M24.96,40.929 C26.272,40.527 27.281,39.597 27.533,39.271 C28.568,37.914 29.224,36.23 29.451,34.547 C29.501,34.17 29.501,33.793 29.451,33.391 C29.4,32.788 29.249,32.16 29.097,31.607 C28.946,31.08 28.82,30.552 28.643,30.024 C28.517,29.698 28.391,29.371 28.214,29.07 C27.76,28.266 27.054,27.512 26.247,26.934 C21.882,23.843 17.947,27.462 16.963,32.436 C16.635,34.095 17.215,37.009 18.325,38.869 C19.713,41.18 22.463,41.708 24.96,40.954 z" fill="#9D836C"/>
  </g>
</svg>
